# Blender 4.5.3 LTS
# www.blender.org
o Cube
v 1.000000 0.325080 -1.000000
v 1.000000 -0.325080 -1.000000
v 1.000000 0.325080 1.000000
v 1.000000 -0.325080 1.000000
v -1.000000 0.325080 -1.000000
v -1.000000 -0.325080 -1.000000
v -1.000000 0.325080 1.000000
v -1.000000 -0.325080 1.000000
v -0.240645 0.255972 0.320436
v -0.240645 5.561051 0.320436
v -0.240645 0.255972 -0.320436
v -0.240645 5.561051 -0.320436
v 0.240645 0.255972 0.320436
v 0.240645 5.561051 0.320436
v 0.240645 0.255972 -0.320436
v 0.240645 5.561051 -0.320436
v -0.794003 5.553495 0.763667
v -0.794003 5.813605 0.763667
v -0.794003 5.553495 -0.787487
v -0.794003 5.813605 -0.787487
v 0.708462 5.553495 0.763667
v 0.708462 5.813605 0.763667
v 0.708462 5.553495 -0.787487
v 0.708462 5.813605 -0.787487
v -0.567696 5.895362 0.572953
v -0.567696 6.839612 0.572953
v -0.567696 5.895362 -0.572953
v -0.567696 6.839612 -0.572953
v 0.567696 5.895362 0.572953
v 0.567696 6.839612 0.572953
v 0.567696 5.895362 -0.572953
v 0.567696 6.839612 -0.572953
v -0.782280 6.815474 0.692234
v -0.782280 7.145019 0.692234
v -0.782280 6.815474 -0.692234
v -0.782280 7.145019 -0.692234
v 0.782280 6.815474 0.692234
v 0.782280 7.145019 0.692234
v 0.782280 6.815474 -0.692234
v 0.782280 7.145019 -0.692234
vn -0.0000 1.0000 -0.0000
vn -0.0000 -0.0000 1.0000
vn -1.0000 -0.0000 -0.0000
vn -0.0000 -1.0000 -0.0000
vn 1.0000 -0.0000 -0.0000
vn -0.0000 -0.0000 -1.0000
vt 0.260080 0.122554
vt 0.137526 0.000000
vt 0.260080 0.000000
vt 0.137526 0.245109
vt 0.260080 0.122554
vt 0.260080 0.245109
vt 0.137526 0.367663
vt 0.260080 0.245109
vt 0.260080 0.367663
vt 0.260080 0.490218
vt 0.137526 0.367663
vt 0.260080 0.367663
vt 0.137526 0.612772
vt 0.260080 0.490218
vt 0.260080 0.612772
vt 0.137526 0.735327
vt 0.260080 0.735327
vt 0.000000 0.000000
vt 0.039271 1.000000
vt 0.000000 1.000000
vt 0.078542 0.000000
vt 0.108034 1.000000
vt 0.078542 1.000000
vt 0.039271 0.000000
vt 0.108034 0.000000
vt 0.137526 1.000000
vt 0.352147 0.915358
vt 0.381639 0.876087
vt 0.381639 0.915358
vt 0.352147 0.954629
vt 0.381639 0.954629
vt 0.352147 0.596903
vt 0.401177 0.501852
vt 0.401177 0.596903
vt 0.352147 0.784020
vt 0.401177 0.691953
vt 0.401177 0.784020
vt 0.352147 0.691953
vt 0.401177 0.596903
vt 0.401177 0.691953
vt 0.352147 0.876087
vt 0.401178 0.784020
vt 0.401178 0.876087
vt 0.260080 0.629020
vt 0.352147 0.533969
vt 0.352147 0.629020
vt 0.260080 0.724070
vt 0.352147 0.724070
vt 0.137526 0.735326
vt 0.207744 0.913316
vt 0.137526 0.913316
vt 0.260080 0.177990
vt 0.329654 0.355980
vt 0.260080 0.355980
vt 0.260080 -0.000000
vt 0.330298 0.177990
vt 0.260080 0.177990
vt 0.260080 0.355979
vt 0.329654 0.533969
vt 0.260080 0.533969
vt 0.352147 0.431634
vt 0.421721 0.361417
vt 0.421721 0.431634
vt 0.352147 0.501852
vt 0.421721 0.501852
vt 0.352147 0.276580
vt 0.414266 0.191744
vt 0.414266 0.276580
vt 0.352147 0.095872
vt 0.414266 0.000000
vt 0.414266 0.095872
vt 0.352147 0.361417
vt 0.414266 0.276580
vt 0.414266 0.361417
vt 0.352147 0.191744
vt 0.414266 0.095872
vt 0.344917 0.819942
vt 0.260080 0.724070
vt 0.344917 0.724070
vt 0.344917 0.915814
vt 0.260080 0.819942
vt 0.137526 0.122554
vt 0.137526 0.122554
vt 0.137526 0.245109
vt 0.137526 0.490218
vt 0.137526 0.490218
vt 0.137526 0.000000
vt 0.352147 0.876087
vt 0.352147 0.691953
vt 0.352147 0.596903
vt 0.352147 0.784020
vt 0.260080 0.533969
vt 0.260080 0.629020
vt 0.207744 0.735326
vt 0.329654 0.177990
vt 0.330298 -0.000000
vt 0.329654 0.355979
vt 0.352147 0.191744
vt 0.352147 0.000000
vt 0.260080 0.915814
s 0
f 5/1/1 3/2/1 1/3/1
f 3/4/2 8/5/2 4/6/2
f 7/7/3 6/8/3 8/9/3
f 2/10/4 8/11/4 6/12/4
f 1/13/5 4/14/5 2/15/5
f 5/16/6 2/15/6 6/17/6
f 10/18/3 11/19/3 9/20/3
f 12/21/6 15/22/6 11/23/6
f 16/24/5 13/23/5 15/19/5
f 14/25/2 9/26/2 13/22/2
f 15/27/4 9/28/4 11/29/4
f 12/30/1 14/29/1 16/31/1
f 18/32/3 19/33/3 17/34/3
f 20/35/6 23/36/6 19/37/6
f 24/38/5 21/39/5 23/40/5
f 22/41/2 17/42/2 21/43/2
f 23/44/4 17/45/4 19/46/4
f 20/47/1 22/46/1 24/48/1
f 26/49/3 27/50/3 25/51/3
f 28/52/6 31/53/6 27/54/6
f 32/55/5 29/56/5 31/57/5
f 30/58/2 25/59/2 29/60/2
f 31/61/4 25/62/4 27/63/4
f 28/64/1 30/63/1 32/65/1
f 34/66/3 35/67/3 33/68/3
f 36/69/6 39/70/6 35/71/6
f 40/72/5 37/73/5 39/74/5
f 38/75/2 33/76/2 37/67/2
f 39/77/4 33/78/4 35/79/4
f 36/80/1 38/81/1 40/77/1
f 5/1/1 7/82/1 3/2/1
f 3/4/2 7/83/2 8/5/2
f 7/7/3 5/84/3 6/8/3
f 2/10/4 4/85/4 8/11/4
f 1/13/5 3/86/5 4/14/5
f 5/16/6 1/13/6 2/15/6
f 10/18/3 12/24/3 11/19/3
f 12/21/6 16/25/6 15/22/6
f 16/24/5 14/21/5 13/23/5
f 14/25/2 10/87/2 9/26/2
f 15/27/4 13/88/4 9/28/4
f 12/30/1 10/27/1 14/29/1
f 18/32/3 20/64/3 19/33/3
f 20/35/6 24/89/6 23/36/6
f 24/38/5 22/90/5 21/39/5
f 22/41/2 18/91/2 17/42/2
f 23/44/4 21/92/4 17/45/4
f 20/47/1 18/93/1 22/46/1
f 26/49/3 28/94/3 27/50/3
f 28/52/6 32/95/6 31/53/6
f 32/55/5 30/96/5 29/56/5
f 30/58/2 26/97/2 25/59/2
f 31/61/4 29/72/4 25/62/4
f 28/64/1 26/61/1 30/63/1
f 34/66/3 36/98/3 35/67/3
f 36/69/6 40/99/6 39/70/6
f 40/72/5 38/66/5 37/73/5
f 38/75/2 34/69/2 33/76/2
f 39/77/4 37/81/4 33/78/4
f 36/80/1 34/100/1 38/81/1
